<svg xmlns="http://www.w3.org/2000/svg" version="1.1" width="16px" height="16px" viewBox="0 0 24 24">
  <defs>
    <style>
    :root { color-scheme: light dark; }
    .st0 { stroke: #3a3a3c; }
    .st1 { fill: #e5484d; }
    @media (prefers-color-scheme: dark) {
      .st0 { stroke: #f5f5f5; }
      .st1 { fill: #ff6166; }
    }
    </style>
  </defs>
  <g class="st0" fill="none" stroke-width="2.2" stroke-linecap="round" stroke-linejoin="round">
    <path d="M8.5 2.5 C6 2.5 6 4.5 6 6.5 L6 9.5 C6 11.5 3.5 12 3.5 12 C3.5 12 6 12.5 6 14.5 L6 17.5 C6 19.5 6 21.5 8.5 21.5"/>
    <path d="M15.5 2.5 C18 2.5 18 4.5 18 6.5 L18 9.5 C18 11.5 20.5 12 20.5 12 C20.5 12 18 12.5 18 14.5 L18 17.5 C18 19.5 18 21.5 15.5 21.5"/>
  </g>
  <circle class="st1" cx="12" cy="12" r="1.9"/>
</svg>
