<?xml version="1.0" standalone="yes"?>
<svg xmlns="http://www.w3.org/2000/svg" width="280" height="280">
<!-- <path style="fill:#f7941e; stroke:none;" d="M0 0L0 279L258 279L258 0L0 0z"/> -->
<rect width="280" height="280" fill="#f7941e"/>
<g transform="translate(30,25) scale(0.85,0.85)">
<path style="fill:#ffffff; stroke:none;" d="M83 3C83 8.92053 85.0973 19.8391 81.3966 24.7863C78.8185 28.2328 73.795 29.4452 70 31.0108C67.06 32.2237 63.2912 34.7122 60 33.6435C54.9084 31.9902 50.8409 25.5572 47 22.0586C44.752 20.0109 42.2083 17.7616 39 19.0864C36.6487 20.0573 34.7728 22.2652 33 24.0046C29.1929 27.7401 19.5804 34.4141 18.9213 40C18.5857 42.8445 21.2694 45.1479 23.0154 47C26.406 50.5963 31.0487 54.4849 33.2261 59C34.8403 62.3472 32.8834 65.8772 31.5756 69C30.0712 72.5922 28.7264 77.8567 25.6065 80.3966C20.8394 84.2775 8.87757 82 3 82L3 116C8.92054 116 19.8391 113.903 24.7863 117.603C28.2328 120.182 29.4452 125.205 31.0108 129C32.2237 131.94 34.7122 135.709 33.6435 139C31.9902 144.092 25.5572 148.159 22.0586 152C20.011 154.248 17.7616 156.792 19.0864 160C20.0573 162.351 22.2653 164.227 24.0046 166C27.74 169.807 34.4141 179.42 40 180.079C42.8405 180.414 45.156 177.733 47 175.981C50.6467 172.518 55.0053 166.847 60 165.342C63.2696 164.356 67.0744 166.604 70 167.85C73.3366 169.271 78.0271 170.483 80.3966 173.394C82.3375 175.778 81.9941 179.123 82 182L82 199L116 199C116 192.473 113.548 179.635 117.603 174.214C120.149 170.811 125.249 169.448 129 167.85C131.887 166.621 135.776 164.306 139 165.356C145.853 167.59 152.786 184.207 161 179.377C163.281 178.036 165.141 175.845 167 173.999C170.438 170.585 180.693 163.418 180.079 158C179.148 149.766 166.283 146.066 165.132 138C164.711 135.054 166.735 131.619 167.85 129C169.271 125.663 170.483 120.973 173.394 118.603C175.778 116.662 179.123 117.006 182 117L199 117L199 83C192.473 83 179.635 85.4519 174.214 81.3966C170.767 78.8185 169.555 73.795 167.989 70C166.776 67.06 164.288 63.2912 165.356 60C167.01 54.9084 173.443 50.8409 176.941 47C178.989 44.752 181.238 42.2083 179.914 39C179.11 37.0536 177.405 35.4891 175.981 34C174.356 32.3006 172.663 30.6626 171 29C168.015 26.0146 163.494 19.4518 159 18.9213C156.169 18.5871 153.899 21.2472 152 22.9298C148.34 26.1735 143.703 32.1183 139 33.6435C135.969 34.6265 132.703 32.5565 130 31.4244C126.365 29.9023 121.191 28.7851 118.603 25.6065C114.723 20.8394 117 8.87756 117 3L83 3z"/>
<path style="fill:#f7941e; stroke:none;" d="M93 57.439C86.906 58.3987 81.1411 60.6822 76 64.1049C71.3773 67.1826 67.1826 71.3773 64.1049 76C44.1642 105.952 70.2362 147.193 106 141.561C112.094 140.601 117.859 138.318 123 134.895C127.623 131.817 131.817 127.623 134.895 123C154.836 93.0485 128.764 51.8073 93 57.439z"/>
<path style="fill:#ffffff; stroke:none;" d="M200 179C200 185.213 199.416 198.447 189 194.762C184.136 193.042 181.681 186.325 176 190.337C173.346 192.212 168.298 196.407 168.346 200C168.441 207.238 177.75 208.375 172.47 216.852C168.453 223.301 158.449 216.252 158.019 226.005C157.891 228.925 156.994 234.906 159.603 236.972C164.924 241.186 170.547 235.455 173.772 243.99C176.266 250.588 169.921 251.484 168.306 257C167.21 260.744 171.502 264.689 174.015 266.851C180.803 272.693 182.816 265.247 189 263.407C193.943 261.936 198.532 266.449 198.941 270.999C199.119 272.976 199 275.017 199 277L217 277C217 274.73 216.775 272.288 217.148 270.042C217.933 265.314 224.565 261.572 229 263.788C231.774 265.174 233.744 268.696 237 269.079C239.804 269.408 242.197 266.764 243.981 264.981C245.764 263.197 248.408 260.804 248.079 258C247.695 254.735 244.16 252.805 242.812 250C240.711 245.624 244.389 238.921 249.042 238.148C251.288 237.775 253.73 238 256 238L256 221C253.446 220.526 250.578 220.454 248.105 219.697C243.677 218.34 241.151 211.975 243.527 208C244.966 205.593 247.952 203.826 248.654 201C249.257 198.574 247.428 196.656 245.937 195.001C244.072 192.931 241.082 189.207 238 189.207C234.38 189.206 232.219 193.554 229.285 195.068C224.22 197.682 217.489 191.853 217.059 186.996C216.825 184.362 217 181.643 217 179L200 179z"/>
<path style="fill:#f7941e; stroke:none;" d="M205 213.534C184.791 218.347 191.857 249.111 212 244.606C231.725 240.196 224.667 208.85 205 213.534z"/>
</g>
</svg>
